<svg aria-hidden="true" style="position: absolute; width: 0; height: 0; overflow: hidden;" version="1.1" xmlns="http://www.w3.org/2000/svg" xmlns:xlink="http://www.w3.org/1999/xlink">
<defs>
<symbol id="icon-cancel-circle" viewBox="0 0 32 32">
<path d="M16 0c-8.837 0-16 7.163-16 16s7.163 16 16 16 16-7.163 16-16-7.163-16-16-16zM16 29c-7.18 0-13-5.82-13-13s5.82-13 13-13 13 5.82 13 13-5.82 13-13 13z"></path>
<path d="M21 8l-5 5-5-5-3 3 5 5-5 5 3 3 5-5 5 5 3-3-5-5 5-5z"></path>
</symbol>
<symbol id="icon-shopping-cart-empty-side-view-2" viewBox="0 0 19 20">
<path fill="#e74e13" style="fill: var(--color2, #e74e13)" d="M18.715 5.109c-0.108-0.154-0.281-0.25-0.47-0.258l-11.676-0.503c-0.335-0.015-0.615 0.244-0.629 0.577s0.244 0.615 0.577 0.629l10.886 0.469-2.14 6.678h-9.525l-1.721-9.37c-0.038-0.205-0.179-0.377-0.373-0.453l-2.818-1.107c-0.311-0.122-0.661 0.031-0.783 0.341s0.031 0.661 0.341 0.783l2.506 0.984 1.751 9.534c0.053 0.287 0.303 0.495 0.594 0.495h0.29l-0.663 1.843c-0.056 0.154-0.033 0.326 0.062 0.46s0.248 0.214 0.412 0.214h0.465c-0.288 0.321-0.465 0.743-0.465 1.208 0 0.999 0.813 1.812 1.812 1.812s1.812-0.813 1.812-1.812c0-0.465-0.177-0.887-0.465-1.208h3.95c-0.288 0.321-0.465 0.743-0.465 1.208 0 0.999 0.813 1.812 1.812 1.812s1.812-0.813 1.812-1.812c0-0.465-0.177-0.887-0.465-1.208h0.566c0.278 0 0.503-0.225 0.503-0.503s-0.225-0.503-0.503-0.503h-9.652l0.543-1.51h9.108c0.263 0 0.495-0.17 0.575-0.42l2.516-7.851c0.058-0.179 0.028-0.375-0.080-0.53zM7.147 18.44c-0.444 0-0.805-0.361-0.805-0.805s0.361-0.805 0.805-0.805c0.444 0 0.805 0.361 0.805 0.805s-0.361 0.805-0.805 0.805zM13.79 18.44c-0.444 0-0.805-0.361-0.805-0.805s0.361-0.805 0.805-0.805c0.444 0 0.805 0.361 0.805 0.805s-0.361 0.805-0.805 0.805z"></path>
</symbol>
<symbol id="icon-clipboard-1" viewBox="0 0 20 20">
<path fill="#fff" style="fill: var(--color1, #fff)" d="M15.856 2.62h-1.809v-0.809c0-0.262-0.286-0.381-0.548-0.381h-1.405c-0.333-0.952-1.167-1.428-2.119-1.428-0.942-0.035-1.798 0.542-2.119 1.428h-1.381c-0.262 0-0.524 0.119-0.524 0.381v0.809h-1.809c-1.072 0.011-1.949 0.857-2 1.928v13.642c0 1.047 0.952 1.809 2 1.809h11.713c1.048 0 2-0.762 2-1.809v-13.642c-0.050-1.071-0.928-1.917-2-1.928zM6.904 2.382h1.309c0.229-0.028 0.412-0.202 0.452-0.429 0.141-0.614 0.68-1.055 1.309-1.071 0.624 0.019 1.155 0.461 1.286 1.071 0.043 0.235 0.238 0.411 0.476 0.429h1.357v1.905h-6.19v-1.905zM16.903 18.191c0 0.524-0.524 0.857-1.048 0.857h-11.713c-0.524 0-1.048-0.333-1.048-0.857v-13.642c0.049-0.545 0.5-0.966 1.048-0.976h1.809v1.214c0.025 0.267 0.256 0.466 0.524 0.452h7.023c0.273 0.015 0.511-0.182 0.548-0.452v-1.214h1.809c0.547 0.010 0.999 0.431 1.048 0.976v13.642h0z"></path>
<path fill="#fff" style="fill: var(--color1, #fff)" d="M8.165 10.644c-0.179-0.188-0.475-0.199-0.667-0.024l-1.524 1.452-0.643-0.667c-0.179-0.188-0.475-0.199-0.667-0.024-0.184 0.193-0.184 0.497 0 0.69l0.976 1c0.084 0.095 0.207 0.147 0.333 0.143 0.126-0.002 0.245-0.053 0.333-0.143l1.857-1.762c0.184-0.169 0.196-0.455 0.027-0.639-0.009-0.010-0.018-0.019-0.027-0.027z"></path>
<path fill="#fff" style="fill: var(--color1, #fff)" d="M14.999 11.667h-5.476c-0.263 0-0.476 0.213-0.476 0.476s0.213 0.476 0.476 0.476h5.476c0.263 0 0.476-0.213 0.476-0.476s-0.213-0.476-0.476-0.476z"></path>
<path fill="#fff" style="fill: var(--color1, #fff)" d="M8.165 6.834c-0.179-0.188-0.475-0.199-0.667-0.024l-1.524 1.452-0.643-0.667c-0.179-0.188-0.475-0.199-0.667-0.024-0.184 0.193-0.184 0.497 0 0.69l0.976 1c0.084 0.095 0.207 0.147 0.333 0.143 0.126-0.002 0.245-0.053 0.333-0.143l1.857-1.762c0.184-0.169 0.196-0.455 0.027-0.639-0.009-0.010-0.018-0.019-0.027-0.028z"></path>
<path fill="#fff" style="fill: var(--color1, #fff)" d="M14.999 7.858h-5.476c-0.263 0-0.476 0.213-0.476 0.476s0.213 0.476 0.476 0.476h5.476c0.263 0 0.476-0.213 0.476-0.476s-0.213-0.476-0.476-0.476z"></path>
<path fill="#fff" style="fill: var(--color1, #fff)" d="M8.165 14.453c-0.179-0.188-0.475-0.199-0.667-0.024l-1.524 1.452-0.643-0.667c-0.179-0.188-0.475-0.199-0.667-0.024-0.184 0.193-0.184 0.497 0 0.69l0.976 1c0.084 0.095 0.207 0.147 0.333 0.143 0.126-0.002 0.245-0.053 0.333-0.143l1.857-1.762c0.184-0.169 0.196-0.455 0.027-0.639-0.009-0.010-0.018-0.019-0.027-0.028z"></path>
<path fill="#fff" style="fill: var(--color1, #fff)" d="M14.999 15.477h-5.476c-0.263 0-0.476 0.213-0.476 0.476s0.213 0.476 0.476 0.476h5.476c0.263 0 0.476-0.213 0.476-0.476s-0.213-0.476-0.476-0.476z"></path>
</symbol>
<symbol id="icon-cancel-circle" viewBox="0 0 32 32">
<path d="M16 0c-8.837 0-16 7.163-16 16s7.163 16 16 16 16-7.163 16-16-7.163-16-16-16zM16 29c-7.18 0-13-5.82-13-13s5.82-13 13-13 13 5.82 13 13-5.82 13-13 13z"></path>
<path d="M21 8l-5 5-5-5-3 3 5 5-5 5 3 3 5-5 5 5 3-3-5-5 5-5z"></path>
</symbol>
<symbol id="icon-checkmark" viewBox="0 0 32 32">
<path d="M27 4l-15 15-7-7-5 5 12 12 20-20z"></path>
</symbol>
</defs>
</svg>
